<?xml version="1.0" encoding="UTF-8" standalone="no"?>
<svg
   xmlns:dc="http://purl.org/dc/elements/1.1/"
   xmlns:cc="http://creativecommons.org/ns#"
   xmlns:rdf="http://www.w3.org/1999/02/22-rdf-syntax-ns#"
   xmlns:svg="http://www.w3.org/2000/svg"
   xmlns="http://www.w3.org/2000/svg"
   xmlns:sodipodi="http://sodipodi.sourceforge.net/DTD/sodipodi-0.dtd"
   xmlns:inkscape="http://www.inkscape.org/namespaces/inkscape"
   width="32"
   height="32"
   viewBox="0 0 8.4666663 8.4666669"
   version="1.1"
   id="svg4826"
   inkscape:version="1.0.1 (1.0.1+r73)"
   sodipodi:docname="calender.svg">
  <defs
     id="defs4820" />
  <sodipodi:namedview
     id="base"
     pagecolor="#cccccc"
     bordercolor="#666666"
     borderopacity="1.0"
     inkscape:pageopacity="0.44705882"
     inkscape:pageshadow="2"
     inkscape:zoom="15.875"
     inkscape:cx="12.88189"
     inkscape:cy="16"
     inkscape:document-units="in"
     inkscape:current-layer="layer1"
     showgrid="false"
     units="px"
     inkscape:showpageshadow="false"
     inkscape:window-width="1366"
     inkscape:window-height="704"
     inkscape:window-x="0"
     inkscape:window-y="0"
     inkscape:window-maximized="1"
     inkscape:document-rotation="0" />
  <metadata
     id="metadata4823">
    <rdf:RDF>
      <cc:Work
         rdf:about="">
        <dc:format>image/svg+xml</dc:format>
        <dc:type
           rdf:resource="http://purl.org/dc/dcmitype/StillImage" />
        <dc:title></dc:title>
      </cc:Work>
    </rdf:RDF>
  </metadata>
  <g
     inkscape:label="Layer 1"
     inkscape:groupmode="layer"
     id="layer1"
     transform="translate(0,-86.999987)">
    <g
       id="g142"
       transform="matrix(0.01683311,0,0,0.01466552,-0.10544223,87.325075)"
       style="fill:none;stroke:#ffffff;stroke-width:16.83959205;stroke-miterlimit:4;stroke-dasharray:none">
      <g
         id="g86"
         style="fill:none;stroke:#ffffff;stroke-width:16.83959205;stroke-miterlimit:4;stroke-dasharray:none">
	<path
   d="m 482.513,83.942 c -7.225,-7.233 -15.797,-10.85 -25.694,-10.85 h -36.541 v -27.41 c 0,-12.56 -4.477,-23.315 -13.422,-32.261 C 397.906,4.475 387.157,0 374.591,0 h -18.268 c -12.565,0 -23.318,4.475 -32.264,13.422 -8.949,8.945 -13.422,19.701 -13.422,32.261 v 27.41 h -109.63 v -27.41 c 0,-12.56 -4.475,-23.315 -13.422,-32.261 C 178.64,4.475 167.886,0 155.321,0 H 137.05 C 124.488,0 113.733,4.475 104.786,13.422 95.841,22.367 91.365,33.123 91.365,45.683 v 27.41 H 54.823 c -9.9,0 -18.464,3.617 -25.697,10.85 -7.233,7.232 -10.85,15.8 -10.85,25.697 v 365.453 c 0,9.89 3.617,18.456 10.85,25.693 7.232,7.231 15.796,10.849 25.697,10.849 h 401.989 c 9.897,0 18.47,-3.617 25.694,-10.849 7.234,-7.234 10.852,-15.804 10.852,-25.693 V 109.639 c -10e-4,-9.9 -3.615,-18.464 -10.845,-25.697 z M 137.047,475.088 H 54.823 v -82.23 h 82.224 z m 0,-100.498 H 54.823 v -91.358 h 82.224 z m 0,-109.639 H 54.823 v -82.223 h 82.224 z m -6.42,-130.618 c -1.809,-1.809 -2.712,-3.946 -2.712,-6.423 V 45.686 c 0,-2.474 0.903,-4.617 2.712,-6.423 1.809,-1.809 3.946,-2.712 6.423,-2.712 h 18.271 c 2.474,0 4.617,0.903 6.423,2.712 1.809,1.807 2.714,3.949 2.714,6.423 v 82.224 c 0,2.478 -0.909,4.615 -2.714,6.423 -1.807,1.809 -3.946,2.712 -6.423,2.712 H 137.05 c -2.474,0.001 -4.614,-0.903 -6.423,-2.712 z m 116.056,340.755 h -91.365 v -82.23 h 91.365 z m 0,-100.498 h -91.365 v -91.358 h 91.365 z m 0,-109.639 h -91.365 v -82.223 h 91.365 z m 109.64,210.137 h -91.364 v -82.23 h 91.364 z m 0,-100.498 h -91.364 v -91.358 h 91.364 z m 0,-109.639 h -91.364 v -82.223 h 91.364 z m -6.427,-130.618 c -1.807,-1.809 -2.707,-3.946 -2.707,-6.423 V 45.686 c 0,-2.474 0.9,-4.617 2.707,-6.423 1.808,-1.809 3.949,-2.712 6.427,-2.712 h 18.268 c 2.478,0 4.617,0.903 6.427,2.712 1.808,1.807 2.707,3.949 2.707,6.423 v 82.224 c 0,2.478 -0.903,4.615 -2.707,6.423 -1.807,1.809 -3.949,2.712 -6.427,2.712 h -18.268 c -2.477,0.001 -4.626,-0.903 -6.427,-2.712 z m 106.916,340.755 h -82.228 v -82.23 h 82.228 z m 0,-100.498 h -82.228 v -91.358 h 82.228 z m 0,-109.639 h -82.228 v -82.223 h 82.228 z"
   id="path84"
   style="fill:none;stroke:#ffffff;stroke-width:16.83959205;stroke-miterlimit:4;stroke-dasharray:none" />

</g>
      <g
         id="g88"
         style="fill:none;stroke:#ffffff;stroke-width:16.83959205;stroke-miterlimit:4;stroke-dasharray:none">
</g>
      <g
         id="g90"
         style="fill:none;stroke:#ffffff;stroke-width:16.83959205;stroke-miterlimit:4;stroke-dasharray:none">
</g>
      <g
         id="g92"
         style="fill:none;stroke:#ffffff;stroke-width:16.83959205;stroke-miterlimit:4;stroke-dasharray:none">
</g>
      <g
         id="g94"
         style="fill:none;stroke:#ffffff;stroke-width:16.83959205;stroke-miterlimit:4;stroke-dasharray:none">
</g>
      <g
         id="g96"
         style="fill:none;stroke:#ffffff;stroke-width:16.83959205;stroke-miterlimit:4;stroke-dasharray:none">
</g>
      <g
         id="g98"
         style="fill:none;stroke:#ffffff;stroke-width:16.83959205;stroke-miterlimit:4;stroke-dasharray:none">
</g>
      <g
         id="g100"
         style="fill:none;stroke:#ffffff;stroke-width:16.83959205;stroke-miterlimit:4;stroke-dasharray:none">
</g>
      <g
         id="g102"
         style="fill:none;stroke:#ffffff;stroke-width:16.83959205;stroke-miterlimit:4;stroke-dasharray:none">
</g>
      <g
         id="g104"
         style="fill:none;stroke:#ffffff;stroke-width:16.83959205;stroke-miterlimit:4;stroke-dasharray:none">
</g>
      <g
         id="g106"
         style="fill:none;stroke:#ffffff;stroke-width:16.83959205;stroke-miterlimit:4;stroke-dasharray:none">
</g>
      <g
         id="g108"
         style="fill:none;stroke:#ffffff;stroke-width:16.83959205;stroke-miterlimit:4;stroke-dasharray:none">
</g>
      <g
         id="g110"
         style="fill:none;stroke:#ffffff;stroke-width:16.83959205;stroke-miterlimit:4;stroke-dasharray:none">
</g>
      <g
         id="g112"
         style="fill:none;stroke:#ffffff;stroke-width:16.83959205;stroke-miterlimit:4;stroke-dasharray:none">
</g>
      <g
         id="g114"
         style="fill:none;stroke:#ffffff;stroke-width:16.83959205;stroke-miterlimit:4;stroke-dasharray:none">
</g>
      <g
         id="g116"
         style="fill:none;stroke:#ffffff;stroke-width:16.83959205;stroke-miterlimit:4;stroke-dasharray:none">
</g>
    </g>
  </g>
</svg>
