<?xml version="1.0" encoding="UTF-8" standalone="no"?>
<svg
   xmlns:dc="http://purl.org/dc/elements/1.1/"
   xmlns:cc="http://creativecommons.org/ns#"
   xmlns:rdf="http://www.w3.org/1999/02/22-rdf-syntax-ns#"
   xmlns:svg="http://www.w3.org/2000/svg"
   xmlns="http://www.w3.org/2000/svg"
   xmlns:sodipodi="http://sodipodi.sourceforge.net/DTD/sodipodi-0.dtd"
   xmlns:inkscape="http://www.inkscape.org/namespaces/inkscape"
   width="32"
   height="32"
   viewBox="0 0 8.4666663 8.4666669"
   version="1.1"
   id="svg4826"
   inkscape:version="1.0.1 (1.0.1+r73)"
   sodipodi:docname="members.svg">
  <defs
     id="defs4820" />
  <sodipodi:namedview
     id="base"
     pagecolor="#cccccc"
     bordercolor="#666666"
     borderopacity="1.0"
     inkscape:pageopacity="0.44705882"
     inkscape:pageshadow="2"
     inkscape:zoom="15.875"
     inkscape:cx="16"
     inkscape:cy="16"
     inkscape:document-units="in"
     inkscape:current-layer="layer1"
     showgrid="false"
     units="px"
     inkscape:showpageshadow="false"
     inkscape:window-width="1366"
     inkscape:window-height="704"
     inkscape:window-x="0"
     inkscape:window-y="0"
     inkscape:window-maximized="1"
     inkscape:document-rotation="0" />
  <metadata
     id="metadata4823">
    <rdf:RDF>
      <cc:Work
         rdf:about="">
        <dc:format>image/svg+xml</dc:format>
        <dc:type
           rdf:resource="http://purl.org/dc/dcmitype/StillImage" />
        <dc:title />
      </cc:Work>
    </rdf:RDF>
  </metadata>
  <g
     inkscape:label="Layer 1"
     inkscape:groupmode="layer"
     id="layer1"
     transform="translate(0,-86.999987)">
    <path
       style="fill:#ffffff;stroke:#ffffff;stroke-width:0.26458333;stroke-miterlimit:4;stroke-dasharray:none"
       d="m 2.50761,95.024234 c -0.034472,-0.03293 -0.035299,-0.04517 -0.028129,-0.417711 0.00648,-0.335888 0.012094,-0.398975 0.045047,-0.505454 0.1597308,-0.515994 0.6736122,-0.9319 1.3247031,-1.072139 0.080312,-0.0173 0.239211,-0.03608 0.3531064,-0.04172 l 0.207084,-0.01024 0.1158864,0.06687 c 0.2046976,0.118129 0.2867808,0.138922 0.5484339,0.138922 0.2616207,0 0.3437441,-0.0208 0.5483099,-0.138851 l 0.1157613,-0.06681 0.1987167,0.0093 c 0.8708213,0.04065 1.583139,0.558523 1.7117747,1.2445 0.013847,0.07382 0.023048,0.247647 0.023406,0.442045 5.773e-4,0.299165 -0.00167,0.322528 -0.033378,0.352822 -0.033668,0.03216 -0.056616,0.03244 -2.5645939,0.03244 H 2.5431139 Z m 4.9742107,-0.47301 C 7.4757906,94.257519 7.4708771,94.210945 7.4348305,94.111412 7.3303533,93.822827 7.0764757,93.545684 6.7634125,93.378466 6.5207844,93.248871 6.17186,93.160206 5.9044861,93.160206 c -0.1154911,0 -0.1436215,0.0061 -0.2147433,0.04609 -0.117825,0.06635 -0.2840069,0.125457 -0.4187396,0.148927 -0.2512523,0.04376 -0.5818419,-0.01348 -0.7967973,-0.137967 -0.090418,-0.05237 -0.109413,-0.05705 -0.2313061,-0.05705 -0.6099443,0 -1.2216385,0.335814 -1.4626508,0.802979 -0.102925,0.199505 -0.1182404,0.279793 -0.1182404,0.619836 v 0.296695 h 2.4132461 2.413246 z M 4.8699406,92.842988 C 4.8092264,92.830531 4.6946722,92.789756 4.615383,92.752362 4.4979332,92.696975 4.4409219,92.655571 4.3076911,92.528915 4.0709491,92.303852 3.9375162,92.069261 3.8474956,91.719833 c -0.048632,-0.18875 -0.05206,-0.541015 -0.00692,-0.709011 0.086085,-0.32031 0.3043206,-0.58751 0.5877692,-0.719647 0.223803,-0.104332 0.3736021,-0.135868 0.6453936,-0.135868 0.2697904,0 0.4226067,0.03175 0.6369022,0.132348 0.598734,0.281056 0.8002513,1.020195 0.4774517,1.751229 -0.1348712,0.305441 -0.3940061,0.586267 -0.6581539,0.713247 -0.2273909,0.109311 -0.4324481,0.13754 -0.6600088,0.09086 z m 0.3984205,-0.178053 c 0.1622021,-0.04035 0.294736,-0.11773 0.4438227,-0.259117 0.5416824,-0.513709 0.6021353,-1.420902 0.1221521,-1.83308 -0.2536543,-0.217822 -0.7279782,-0.3077 -1.1075779,-0.209875 -0.3723537,0.09596 -0.6395868,0.367842 -0.716598,0.729066 -0.036449,0.170965 -0.024757,0.450193 0.026834,0.64076 0.1228344,0.453716 0.4640224,0.836844 0.8314458,0.933652 0.1086201,0.02862 0.2816742,0.02801 0.3999179,-0.0014 z M 0.99641007,90.91952 c -0.0134002,-0.02392 -0.01713,-0.126074 -0.0119709,-0.328588 0.0067,-0.26363 0.0118369,-0.304921 0.0498601,-0.401253 0.059698,-0.151278 0.1193347,-0.242344 0.2380999,-0.363607 0.2524773,-0.257786 0.6306544,-0.412133 1.0114692,-0.412817 0.1436718,-2.45e-4 0.1636448,0.0037 0.2377772,0.04698 0.1267216,0.07401 0.2584493,0.103691 0.4234789,0.09542 0.1250197,-0.0063 0.1584466,-0.01516 0.2818148,-0.0749 0.1335748,-0.06469 0.1469549,-0.06778 0.2928009,-0.06767 0.4380829,3.07e-4 0.9002996,0.229893 1.1265906,0.559538 l 0.055678,0.08111 -0.090117,0.02515 -0.090117,0.02515 -0.0646,-0.08595 c -0.1748381,-0.232627 -0.5284727,-0.40523 -0.8923562,-0.435547 -0.1249762,-0.01045 -0.1392933,-0.0083 -0.2098601,0.03122 -0.2740293,0.153384 -0.5967953,0.159106 -0.8826258,0.01565 -0.112772,-0.0566 -0.1216485,-0.05837 -0.2397013,-0.04801 -0.452535,0.03976 -0.8210986,0.258768 -0.9924788,0.589758 l -0.064243,0.124065 -0.00581,0.248302 -0.00581,0.248301 H 2.465101 c 0.7154422,0 1.3006877,0.0018 1.3005459,0.0041 -1.34e-4,0.0022 -0.010497,0.0369 -0.023104,0.07705 l -0.022847,0.073 -1.3519525,0.0042 -1.3519536,0.0042 z M 2.671649,89.332872 C 2.5331899,89.289207 2.3529019,89.167442 2.2518005,89.049305 2.1554974,88.936771 2.0316825,88.704766 1.9913869,88.56133 c -0.042389,-0.150887 -0.051088,-0.399156 -0.019028,-0.543431 0.078559,-0.353628 0.3414516,-0.592827 0.7240988,-0.658847 0.5205938,-0.08982 0.9753164,0.156007 1.1136851,0.602072 0.041206,0.132814 0.040614,0.413674 -0.00123,0.567762 -0.097129,0.358035 -0.3163707,0.638665 -0.5991716,0.766938 -0.1092902,0.04957 -0.1455211,0.05767 -0.2814029,0.06286 -0.1218204,0.0047 -0.1780222,-9.93e-4 -0.2567251,-0.02581 z m 0.4969379,-0.211588 c 0.2695615,-0.137503 0.462593,-0.460606 0.4895979,-0.819503 0.037007,-0.491895 -0.2962927,-0.810512 -0.8178391,-0.781798 -0.3245873,0.01787 -0.5535304,0.162465 -0.6560322,0.414333 -0.05149,0.126519 -0.062914,0.37831 -0.024623,0.542683 0.053958,0.231641 0.1989031,0.463872 0.3648394,0.584543 0.1359544,0.09887 0.2235194,0.125573 0.3922474,0.119633 0.125826,-0.0045 0.1581619,-0.01212 0.2518128,-0.05989 z"
       id="path1217"
       sodipodi:nodetypes="ssssscssscsscsscssssssssssscccsssssssscsssssssssssscsssccsscscccsssscscccscscccccssssscscccsssssscs" />
  </g>
</svg>
